<svg width="46" height="46" viewBox="0 0 46 46" fill="none" xmlns="http://www.w3.org/2000/svg">
<path d="M40.8385 9.40215L38.3049 11.3832C34.8504 6.96738 29.4777 4.13281 23.4447 4.13281C13.0273 4.13281 4.59549 12.5557 4.58202 22.9775C4.56854 33.4084 13.0183 41.8672 23.4447 41.8672C31.589 41.8672 38.5295 36.7012 41.1709 29.4643C41.2383 29.2756 41.1394 29.0645 40.9508 29.0016L38.4037 28.1256C38.3149 28.0951 38.2177 28.1007 38.1329 28.141C38.0481 28.1813 37.9825 28.2531 37.95 28.3412C37.8691 28.5658 37.7793 28.7904 37.6849 29.0105C36.9078 30.8523 35.7937 32.5055 34.3742 33.925C32.9661 35.3357 31.299 36.4614 29.4642 37.2402C27.564 38.0443 25.5381 38.4531 23.4537 38.4531C21.3648 38.4531 19.3433 38.0443 17.4431 37.2402C15.6066 36.4647 13.9389 35.3386 12.5332 33.925C11.1213 32.5171 9.99682 30.8479 9.22245 29.0105C8.41834 27.1059 8.00956 25.0844 8.00956 22.9955C8.00956 20.9066 8.41834 18.8852 9.22245 16.9805C9.99959 15.1387 11.1137 13.4855 12.5332 12.066C13.9527 10.6465 15.6058 9.53242 17.4431 8.75078C19.3433 7.94668 21.3693 7.53789 23.4537 7.53789C25.5426 7.53789 27.564 7.94668 29.4642 8.75078C31.3008 9.52633 32.9685 10.6524 34.3742 12.066C34.8189 12.5107 35.2367 12.9824 35.623 13.4766L32.9187 15.5879C32.8652 15.6293 32.8245 15.6849 32.8012 15.7485C32.7779 15.812 32.773 15.8808 32.7871 15.9469C32.8012 16.0131 32.8337 16.0739 32.8808 16.1225C32.9279 16.171 32.9878 16.2053 33.0535 16.2213L40.9418 18.1529C41.1664 18.2068 41.3865 18.0361 41.3865 17.807L41.4224 9.68066C41.418 9.38418 41.0721 9.21797 40.8385 9.40215V9.40215Z" fill="white"/>
</svg>
